<svg width="200" height="200" viewBox="0 0 200 200" fill="none" xmlns="http://www.w3.org/2000/svg">
    <circle cx="100" cy="100" r="95" fill="url(#paint0_linear)" stroke="url(#paint1_linear)"
        stroke-width="10" />
    <g transform="translate(30 30) scale(0.7)">
        <path d="M100 50L140 70V110L100 130L60 110V70L100 50Z" fill="white" stroke="white"
            stroke-width="3" />
        <path d="M100 90L140 110V150L100 170L60 150V110L100 90Z" fill="white" stroke="white"
            stroke-width="3" />
        <path d="M100 70L140 90V110L100 90L60 110V90L100 70Z" fill="#FF9900" stroke="white"
            stroke-width="3" />
    </g>
    <g transform="translate(120 120) scale(0.2)">
        <circle cx="248" cy="50" r="15" fill="#61DAFB" />
        <g fill="none" stroke="#61DAFB" stroke-width="10" stroke-linecap="round">
            <ellipse cx="248" cy="50" rx="100" ry="35" />
            <ellipse cx="248" cy="50" rx="100" ry="35" transform="rotate(60 248 50)" />
            <ellipse cx="248" cy="50" rx="100" ry="35" transform="rotate(120 248 50)" />
        </g>
    </g>
    <defs>
        <linearGradient id="paint0_linear" x1="0" y1="0" x2="200" y2="200"
            gradientUnits="userSpaceOnUse">
            <stop stop-color="#0A66C2" />
            <stop offset="1" stop-color="#004182" />
        </linearGradient>
        <linearGradient id="paint1_linear" x1="0" y1="0" x2="200" y2="200"
            gradientUnits="userSpaceOnUse">
            <stop stop-color="#61DAFB" stop-opacity="0.7" />
            <stop offset="1" stop-color="#FF9900" stop-opacity="0.7" />
        </linearGradient>
    </defs>
</svg>